<?xml version="1.0" encoding="UTF-8"?>
<svg version="1.1" xmlns="http://www.w3.org/2000/svg" width="170" height="112">
<path d="M0 0 C3.74030185 1.60298651 4.73158465 2.59737698 7 6 C7 6.99 7 7.98 7 9 C4.75 9.25 4.75 9.25 2 9 C1.38125 8.34 0.7625 7.68 0.125 7 C-1.97085341 4.60304835 -1.97085341 4.60304835 -5.75 4.75 C-7.35875 4.87375 -7.35875 4.87375 -9 5 C-9.33 6.32 -9.66 7.64 -10 9 C-9.19175781 9.17015625 -8.38351562 9.3403125 -7.55078125 9.515625 C3.75083818 12.0785978 3.75083818 12.0785978 7 16 C8.125 18.9375 8.125 18.9375 8 22 C5.5625 24.875 5.5625 24.875 3 27 C7.62 27 12.24 27 17 27 C15.68 25.68 14.36 24.36 13 23 C11.7736243 20.54724859 11.88584686 18.9494219 11.90234375 16.2109375 C11.90556641 15.26992187 11.90878906 14.32890625 11.91210938 13.359375 C11.92048828 12.37453125 11.92886719 11.3896875 11.9375 10.375 C11.94201172 9.38242188 11.94652344 8.38984375 11.95117188 7.3671875 C11.96297855 4.9113984 11.979446 2.45572896 12 0 C13.65 0 15.3 0 17 0 C17.029729 0.83978394 17.029729 0.83978394 17.06005859 1.6965332 C17.15537783 4.23565854 17.26502753 6.77396888 17.375 9.3125 C17.4059375 10.19357422 17.436875 11.07464844 17.46875 11.98242188 C17.52675781 13.25375977 17.52675781 13.25375977 17.5859375 14.55078125 C17.6173584 15.33106689 17.6487793 16.11135254 17.68115234 16.9152832 C17.89587889 19.30155768 17.89587889 19.30155768 20 22 C22.20725073 22.36362818 22.20725073 22.36362818 24.625 22.1875 C25.44226562 22.16042969 26.25953125 22.13335937 27.1015625 22.10546875 C28.04128906 22.05326172 28.04128906 22.05326172 29 22 C30.61635488 19.13026116 31.2733418 16.95535797 31.4140625 13.671875 C31.45273437 12.87265625 31.49140625 12.0734375 31.53125 11.25 C31.5621875 10.425 31.593125 9.6 31.625 8.75 C31.66367187 7.90953125 31.70234375 7.0690625 31.7421875 6.203125 C31.83615836 4.13576618 31.91915564 2.06791373 32 0 C33.65 0 35.3 0 37 0 C37.08745946 3.3956697 37.14054444 6.79104773 37.1875 10.1875 C37.21263672 11.14720703 37.23777344 12.10691406 37.26367188 13.09570312 C37.3568739 22.07416443 37.3568739 22.07416443 34 26 C33.01 26.495 33.01 26.495 32 27 C35.3 27.33 38.6 27.66 42 28 C42 18.76 42 9.52 42 0 C44.866875 -0.061875 47.73375 -0.12375 50.6875 -0.1875 C52.02880981 -0.22846802 52.02880981 -0.22846802 53.3972168 -0.27026367 C58.08604008 -0.31916583 61.21011422 -0.08722451 65 3 C66.54586876 6.09173752 66.29359521 8.59429552 66 12 C64.13291495 14.36497439 62.67938569 15.66030715 60 17 C57.7927077 17.07092842 55.58332548 17.08415025 53.375 17.0625 C52.18648438 17.05347656 50.99796875 17.04445313 49.7734375 17.03515625 C48.85820313 17.02355469 47.94296875 17.01195313 47 17 C47.495 21.95 47.495 21.95 48 27 C55.26 27 62.52 27 70 27 C70 18.09 70 9.18 70 0 C77.59 0 85.18 0 93 0 C93 1.32 93 2.64 93 4 C87.39 4 81.78 4 76 4 C76 6.31 76 8.62 76 11 C81.28 11 86.56 11 92 11 C92 12.65 92 14.3 92 16 C86.72 16 81.44 16 76 16 C76 18.31 76 20.62 76 23 C81.61 23 87.22 23 93 23 C93.495 25.475 93.495 25.475 94 28 C95.32 28 96.64 28 98 28 C98 18.76 98 9.52 98 0 C101.196875 -0.0825 104.39375 -0.165 107.6875 -0.25 C108.68612061 -0.28641602 109.68474121 -0.32283203 110.71362305 -0.36035156 C114.94117004 -0.41316928 117.37183579 -0.37434436 121.07421875 1.83203125 C123.58102231 4.65409205 124.15421155 6.22181713 124 10 C121.5625 12.75 121.5625 12.75 119 15 C119 17.97740542 120.64094227 19.22781833 122.5 21.5 C126 25.77777778 126 25.77777778 126 28 C126.99 27.505 126.99 27.505 128 27 C128 18.09 128 9.18 128 0 C130.701875 -0.061875 133.40375 -0.12375 136.1875 -0.1875 C137.02949951 -0.21481201 137.87149902 -0.24212402 138.73901367 -0.27026367 C143.27968333 -0.32045769 146.38678126 -0.07193889 150 3 C150.9375 6.5 150.9375 6.5 151 10 C150.34 10.99 149.68 11.98 149 13 C149.7425 13.5259375 149.7425 13.5259375 150.5 14.0625 C152.82091376 17.06034694 152.45113866 19.32644233 152 23 C150 25.4375 150 25.4375 148 27 C148.99 27.99 148.99 27.99 150 29 C150 35.27 150 41.54 150 48 C94.56 48 39.12 48 -18 48 C-18 41.4 -18 34.8 -18 28 C-16.02 27.67 -14.04 27.34 -12 27 C-12.804375 26.2575 -13.60875 25.515 -14.4375 24.75 C-16.76988591 22.24695171 -17.63534394 21.2819045 -18 18 C-16.35 17.67 -14.7 17.34 -13 17 C-12.67 17.804375 -12.34 18.60875 -12 19.4375 C-9.77727737 22.28536337 -9.38379639 22.42092438 -6 22.875 C-3.1467381 23.12357964 -1.80623225 22.93541075 1 22 C1 20.68 1 19.36 1 18 C0.02417969 17.74605469 -0.95164062 17.49210937 -1.95703125 17.23046875 C-3.22933594 16.88628906 -4.50164063 16.54210937 -5.8125 16.1875 C-7.07707031 15.85105469 -8.34164063 15.51460937 -9.64453125 15.16796875 C-12.71753269 14.09832099 -14.097958 13.54725767 -16 11 C-16.875 9.125 -16.875 9.125 -17 7 C-13.27203603 -0.82872435 -7.86709611 -0.76021719 0 0 Z M47 4 C47 6.97 47 9.94 47 13 C48.60407328 13.02708567 50.2082785 13.04643483 51.8125 13.0625 C53.15248047 13.07990234 53.15248047 13.07990234 54.51953125 13.09765625 C57.13413791 13.11009967 57.13413791 13.11009967 60 12 C61.00217064 8.41672247 61.00217064 8.41672247 60 5 C56.98509443 3.99503148 54.95818308 3.89664697 51.8125 3.9375 C50.91144531 3.94652344 50.01039062 3.95554687 49.08203125 3.96484375 C48.05142578 3.98224609 48.05142578 3.98224609 47 4 Z M104 4 C104 6.64 104 9.28 104 12 C110.435 11.505 110.435 11.505 117 11 C117.33 9.35 117.66 7.7 118 6 C114.78817851 4.09391902 112.46117397 3.77733753 108.75 3.875 C107.41195312 3.90207031 107.41195312 3.90207031 106.046875 3.9296875 C105.37140625 3.95289062 104.6959375 3.97609375 104 4 Z M134 4 C134 6.31 134 8.62 134 11 C135.62463842 11.05395478 137.24978541 11.09277195 138.875 11.125 C139.77992188 11.14820312 140.68484375 11.17140625 141.6171875 11.1953125 C144.18806994 11.24324836 144.18806994 11.24324836 146 9 C145.91428339 6.90708843 145.91428339 6.90708843 145 5 C142.24921116 4.08307039 140.64051087 3.89113917 137.8125 3.9375 C136.554375 3.958125 135.29625 3.97875 134 4 Z M104 16 C103.67 19.96 103.34 23.92 103 28 C108.61 28 114.22 28 120 28 C119.071875 26.576875 118.14375 25.15375 117.1875 23.6875 C116.40439453 22.48673828 116.40439453 22.48673828 115.60546875 21.26171875 C114.16684905 19.23505013 112.94209613 17.54574998 111 16 C107.37464024 15.7496423 107.37464024 15.7496423 104 16 Z M134 16 C134 18.31 134 20.62 134 23 C137.96 23 141.92 23 146 23 C146.33 21.35 146.66 19.7 147 18 C145.16262173 15.72783152 145.16262173 15.72783152 142.3984375 15.8046875 C141.40070313 15.82789062 140.40296875 15.85109375 139.375 15.875 C138.37210938 15.89304687 137.36921875 15.91109375 136.3359375 15.9296875 C135.17964844 15.96449219 135.17964844 15.96449219 134 16 Z " fill="#060707" transform="translate(18,64)"/>
<path d="M0 0 C1.546875 1.05078125 1.546875 1.05078125 3.984375 3.17578125 C4.974375 3.83578125 5.964375 4.49578125 6.984375 5.17578125 C7.933125 4.37140625 8.881875 3.56703125 9.859375 2.73828125 C14.67158696 -1.34163759 18.53098018 -1.16652465 24.77734375 -1.09765625 C28.96187041 -0.74087566 31.0123481 0.20375435 33.984375 3.17578125 C37.58940931 8.22048836 39.10783819 12.79241693 39.11376953 18.9284668 C39.11692169 19.86591232 39.12007385 20.80335785 39.12332153 21.76921082 C39.12028519 23.27563896 39.12028519 23.27563896 39.1171875 24.8125 C39.11814423 25.84768265 39.11910095 26.8828653 39.12008667 27.94941711 C39.12076651 30.13400331 39.11892588 32.31859153 39.11474609 34.50317383 C39.10937883 37.86088546 39.11470607 41.21846431 39.12109375 44.57617188 C39.12043325 46.69661488 39.11915268 48.8170578 39.1171875 50.9375 C39.11921173 51.94785812 39.12123596 52.95821625 39.12332153 53.99919128 C39.11859329 55.39117485 39.11859329 55.39117485 39.11376953 56.8112793 C39.11297394 57.63194382 39.11217834 58.45260834 39.11135864 59.29814148 C38.984375 61.17578125 38.984375 61.17578125 37.984375 62.17578125 C36.65393875 62.27415335 35.31844156 62.30656717 33.984375 62.30859375 C33.18 62.30988281 32.375625 62.31117187 31.546875 62.3125 C30.70125 62.30863281 29.855625 62.30476563 28.984375 62.30078125 C28.13875 62.30464844 27.293125 62.30851562 26.421875 62.3125 C25.6175 62.31121094 24.813125 62.30992188 23.984375 62.30859375 C23.241875 62.30746582 22.499375 62.30633789 21.734375 62.30517578 C19.984375 62.17578125 19.984375 62.17578125 18.984375 61.17578125 C18.89168501 59.82483143 18.86690174 58.46911034 18.87084961 57.11499023 C18.87092514 56.25417343 18.87100067 55.39335663 18.87107849 54.50645447 C18.87623978 53.57104324 18.88140106 52.63563202 18.88671875 51.671875 C18.8881337 50.71886002 18.88954865 49.76584503 18.89100647 48.78395081 C18.89662348 45.7270296 18.90917884 42.67018048 18.921875 39.61328125 C18.92688781 37.54622501 18.93145109 35.47916763 18.93554688 33.41210938 C18.94659844 28.33330537 18.96387445 23.25455555 18.984375 18.17578125 C17.994375 18.17578125 17.004375 18.17578125 15.984375 18.17578125 C15.98961182 19.47314209 15.99484863 20.77050293 16.00024414 22.10717773 C16.01828969 26.9022554 16.02980537 31.69733005 16.03930664 36.49243164 C16.04434788 38.57121281 16.05118074 40.64999041 16.05981445 42.72875977 C16.07188922 45.70980711 16.07760524 48.69080774 16.08203125 51.671875 C16.08719254 52.60728622 16.09235382 53.54269745 16.09767151 54.50645447 C16.09774704 55.36727127 16.09782257 56.22808807 16.09790039 57.11499023 C16.100121 57.87666 16.10234161 58.63832977 16.10462952 59.42308044 C15.984375 61.17578125 15.984375 61.17578125 14.984375 62.17578125 C9.044375 62.17578125 3.104375 62.17578125 -3.015625 62.17578125 C-3.345625 47.65578125 -3.675625 33.13578125 -4.015625 18.17578125 C-4.675625 18.50578125 -5.335625 18.83578125 -6.015625 19.17578125 C-6.04068115 20.44284912 -6.0657373 21.70991699 -6.09155273 23.01538086 C-6.18544496 27.69875904 -6.28570935 32.38198255 -6.38793945 37.06518555 C-6.43135741 39.09542229 -6.47302726 41.12569717 -6.51293945 43.15600586 C-6.57047646 46.06766276 -6.63421778 48.97912639 -6.69921875 51.890625 C-6.72428749 53.26093117 -6.72428749 53.26093117 -6.74986267 54.65892029 C-6.90175329 61.06190954 -6.90175329 61.06190954 -8.015625 62.17578125 C-9.35829913 62.26209999 -10.70536822 62.28284598 -12.05078125 62.2734375 C-12.85966797 62.27021484 -13.66855469 62.26699219 -14.50195312 62.26367188 C-15.35208984 62.25529297 -16.20222656 62.24691406 -17.078125 62.23828125 C-17.93212891 62.23376953 -18.78613281 62.22925781 -19.66601562 62.22460938 C-21.78258163 62.21278498 -23.89911185 62.19484894 -26.015625 62.17578125 C-26.11740549 55.20162481 -26.18724996 48.22766136 -26.23535156 41.25292969 C-26.25541326 38.88241416 -26.28266926 36.5119478 -26.31738281 34.14160156 C-26.36613918 30.72578774 -26.38864899 27.3106307 -26.40625 23.89453125 C-26.42689514 22.84213257 -26.44754028 21.78973389 -26.46881104 20.70544434 C-26.47073328 14.34025382 -25.7415159 9.45884943 -22.015625 4.17578125 C-16.28158442 -1.27855003 -7.53724476 -3.0820904 0 0 Z " fill="#C62423" transform="translate(129.015625,0.82421875)"/>
<path d="M0 0 C3.41726069 1.21797636 6.31701164 2.63402327 8 6 C8.66 6 9.32 6 10 6 C10.804375 5.195625 11.60875 4.39125 12.4375 3.5625 C16.05422694 -0.05422694 18.81520055 -0.19351372 23.75 -0.3125 C29.51137228 -0.23596003 32.551765 0.2931375 37 4 C41.54880523 10.20490612 41.53352381 16.50174323 41.390625 23.9375 C41.38496521 25.05817871 41.37930542 26.17885742 41.37347412 27.33349609 C41.35120292 30.88944417 41.30102177 34.44435989 41.25 38 C41.22992313 40.4205583 41.21167445 42.84113249 41.1953125 45.26171875 C41.15136847 51.17482743 41.08454874 57.08733993 41 63 C38.02077407 63.02683987 35.04178705 63.04676037 32.0625 63.0625 C30.78729492 63.07506836 30.78729492 63.07506836 29.48632812 63.08789062 C28.67744141 63.09111328 27.86855469 63.09433594 27.03515625 63.09765625 C26.2862915 63.10289307 25.53742676 63.10812988 24.76586914 63.11352539 C23 63 23 63 22 62 C21.90731001 60.64905018 21.88252674 59.29332909 21.88647461 57.93920898 C21.88655014 57.07839218 21.88662567 56.21757538 21.88670349 55.33067322 C21.89186478 54.39526199 21.89702606 53.45985077 21.90234375 52.49609375 C21.9037587 51.54307877 21.90517365 50.59006378 21.90663147 49.60816956 C21.91224848 46.55124835 21.92480384 43.49439923 21.9375 40.4375 C21.94251281 38.37044376 21.94707609 36.30338638 21.95117188 34.23632812 C21.96222344 29.15752412 21.97949945 24.0787743 22 19 C21.01 19 20.02 19 19 19 C19.00523682 20.29736084 19.01047363 21.59472168 19.01586914 22.93139648 C19.03391469 27.72647415 19.04543037 32.5215488 19.05493164 37.31665039 C19.05997288 39.39543156 19.06680574 41.47420916 19.07543945 43.55297852 C19.08751422 46.53402586 19.09323024 49.51502649 19.09765625 52.49609375 C19.10281754 53.43150497 19.10797882 54.3669162 19.11329651 55.33067322 C19.11337204 56.19149002 19.11344757 57.05230682 19.11352539 57.93920898 C19.115746 58.70087875 19.11796661 59.46254852 19.12025452 60.24729919 C19 62 19 62 18 63 C16.66956375 63.0983721 15.33406656 63.13078592 14 63.1328125 C13.195625 63.13410156 12.39125 63.13539062 11.5625 63.13671875 C10.716875 63.13285156 9.87125 63.12898438 9 63.125 C8.154375 63.12886719 7.30875 63.13273437 6.4375 63.13671875 C5.633125 63.13542969 4.82875 63.13414063 4 63.1328125 C3.2575 63.13168457 2.515 63.13055664 1.75 63.12939453 C0 63 0 63 -1 62 C-1.09268999 60.64905018 -1.11747326 59.29332909 -1.11352539 57.93920898 C-1.11344986 57.07839218 -1.11337433 56.21757538 -1.11329651 55.33067322 C-1.10813522 54.39526199 -1.10297394 53.45985077 -1.09765625 52.49609375 C-1.0962413 51.54307877 -1.09482635 50.59006378 -1.09336853 49.60816956 C-1.08775152 46.55124835 -1.07519616 43.49439923 -1.0625 40.4375 C-1.05748719 38.37044376 -1.05292391 36.30338638 -1.04882812 34.23632812 C-1.03777656 29.15752412 -1.02050055 24.0787743 -1 19 C-1.99 19 -2.98 19 -4 19 C-3.99214478 20.94604126 -3.99214478 20.94604126 -3.98413086 22.93139648 C-3.96608531 27.72647415 -3.95456963 32.5215488 -3.94506836 37.31665039 C-3.94002712 39.39543156 -3.93319426 41.47420916 -3.92456055 43.55297852 C-3.91248578 46.53402586 -3.90676976 49.51502649 -3.90234375 52.49609375 C-3.89718246 53.43150497 -3.89202118 54.3669162 -3.88670349 55.33067322 C-3.88659019 56.62189842 -3.88659019 56.62189842 -3.88647461 57.93920898 C-3.884254 58.70087875 -3.88203339 59.46254852 -3.87974548 60.24729919 C-4 62 -4 62 -5 63 C-6.34267413 63.08631874 -7.68974322 63.10706473 -9.03515625 63.09765625 C-9.84404297 63.09443359 -10.65292969 63.09121094 -11.48632812 63.08789062 C-12.33646484 63.07951172 -13.18660156 63.07113281 -14.0625 63.0625 C-14.91650391 63.05798828 -15.77050781 63.05347656 -16.65039062 63.04882812 C-18.76695663 63.03700373 -20.88348685 63.01906769 -23 63 C-23.10155026 55.70438547 -23.17152891 48.40895371 -23.21972656 41.11279297 C-23.23982241 38.63160389 -23.26710384 36.15046205 -23.30175781 33.66943359 C-23.35036294 30.09981618 -23.37298972 26.53082584 -23.390625 22.9609375 C-23.42159271 21.30123428 -23.42159271 21.30123428 -23.45318604 19.60800171 C-23.454988 13.40137555 -23.1944715 9.69891844 -19 5 C-12.83813689 -0.42830798 -8.09470644 -0.77436605 0 0 Z " fill="#C62423" transform="translate(23,0)"/>
<path d="M0 0 C6.27 0 12.54 0 19 0 C19.495 20.295 19.495 20.295 20 41 C22.31 41.99 24.62 42.98 27 44 C27.02690844 46.62506802 27.04679404 49.24986173 27.0625 51.875 C27.07087891 52.62136719 27.07925781 53.36773437 27.08789062 54.13671875 C27.11328125 59.7734375 27.11328125 59.7734375 26 62 C17.94516981 61.86493425 11.13656674 61.66801115 5 56 C1.48331455 51.49142891 -0.12877028 48.03131258 -0.11352539 42.3449707 C-0.11344986 41.40422195 -0.11337433 40.46347321 -0.11329651 39.49421692 C-0.10813522 38.48163315 -0.10297394 37.46904938 -0.09765625 36.42578125 C-0.0962413 35.38681198 -0.09482635 34.34784271 -0.09336853 33.27738953 C-0.08776656 29.95573052 -0.07521372 26.63413867 -0.0625 23.3125 C-0.05748525 21.06184993 -0.0529223 18.81119881 -0.04882812 16.56054688 C-0.03779648 11.04033867 -0.02053051 5.52018072 0 0 Z " fill="#C62423" transform="translate(73,1)"/>
<path d="M0 0 C2.72977064 -0.08126109 5.4571017 -0.14061663 8.1875 -0.1875 C9.34088867 -0.22520508 9.34088867 -0.22520508 10.51757812 -0.26367188 C15.14119175 -0.32320338 18.31619184 -0.13195363 22 3 C22.9375 6.5 22.9375 6.5 23 10 C22.01 11.485 22.01 11.485 21 13 C21.7425 13.5259375 21.7425 13.5259375 22.5 14.0625 C24.82091376 17.06034694 24.45113866 19.32644233 24 23 C21.64429009 26.19703487 19.83593671 27.33399429 16 28 C13.42567699 28.09401394 10.88549355 28.13968883 8.3125 28.125 C7.62349609 28.12886719 6.93449219 28.13273437 6.22460938 28.13671875 C1.12669335 28.12669335 1.12669335 28.12669335 0 27 C-0.08758003 25.00035018 -0.10696576 22.9976389 -0.09765625 20.99609375 C-0.09443359 19.78115234 -0.09121094 18.56621094 -0.08789062 17.31445312 C-0.07951172 16.03505859 -0.07113281 14.75566406 -0.0625 13.4375 C-0.05798828 12.15423828 -0.05347656 10.87097656 -0.04882812 9.54882812 C-0.03699545 6.36583978 -0.02051068 3.18294238 0 0 Z M6 4 C6 6.31 6 8.62 6 11 C7.62463842 11.05395478 9.24978541 11.09277195 10.875 11.125 C11.77992188 11.14820312 12.68484375 11.17140625 13.6171875 11.1953125 C16.18806994 11.24324836 16.18806994 11.24324836 18 9 C17.91428339 6.90708843 17.91428339 6.90708843 17 5 C14.24921116 4.08307039 12.64051087 3.89113917 9.8125 3.9375 C8.554375 3.958125 7.29625 3.97875 6 4 Z M6 16 C6 18.31 6 20.62 6 23 C9.96 23 13.92 23 18 23 C18.33 21.35 18.66 19.7 19 18 C17.16262173 15.72783152 17.16262173 15.72783152 14.3984375 15.8046875 C13.40070313 15.82789062 12.40296875 15.85109375 11.375 15.875 C10.37210938 15.89304687 9.36921875 15.91109375 8.3359375 15.9296875 C7.17964844 15.96449219 7.17964844 15.96449219 6 16 Z " fill="#BC2A2D" transform="translate(146,64)"/>
<path d="M0 0 C3.196875 -0.0825 6.39375 -0.165 9.6875 -0.25 C10.68612061 -0.28641602 11.68474121 -0.32283203 12.71362305 -0.36035156 C16.94117004 -0.41316928 19.37183579 -0.37434436 23.07421875 1.83203125 C25.58102231 4.65409205 26.15421155 6.22181713 26 10 C23.5625 12.75 23.5625 12.75 21 15 C21 17.99486237 22.65621546 19.32026933 24.5 21.625 C25.1496875 22.44226563 25.799375 23.25953125 26.46875 24.1015625 C26.9740625 24.72804688 27.479375 25.35453125 28 26 C27.67 26.66 27.34 27.32 27 28 C24.7734375 28.33984375 24.7734375 28.33984375 22 28 C19.52133425 25.34178425 17.56414447 22.47586385 15.4765625 19.50390625 C12.37895591 16.37209896 10.31630125 16.20478802 6 16 C6.01160156 16.78246094 6.02320312 17.56492187 6.03515625 18.37109375 C6.04417969 19.38300781 6.05320312 20.39492187 6.0625 21.4375 C6.07410156 22.44683594 6.08570312 23.45617187 6.09765625 24.49609375 C6 27 6 27 5 28 C3.35 28 1.7 28 0 28 C0 18.76 0 9.52 0 0 Z M6 4 C6 6.64 6 9.28 6 12 C12.435 11.505 12.435 11.505 19 11 C19.33 9.35 19.66 7.7 20 6 C16.78817851 4.09391902 14.46117397 3.77733753 10.75 3.875 C9.41195312 3.90207031 9.41195312 3.90207031 8.046875 3.9296875 C7.37140625 3.95289062 6.6959375 3.97609375 6 4 Z " fill="#C32627" transform="translate(116,64)"/>
<path d="M0 0 C7.59 0 15.18 0 23 0 C23 1.32 23 2.64 23 4 C17.39 4 11.78 4 6 4 C6 6.31 6 8.62 6 11 C11.28 11 16.56 11 22 11 C22 12.65 22 14.3 22 16 C16.72 16 11.44 16 6 16 C6 18.31 6 20.62 6 23 C11.61 23 17.22 23 23 23 C23.33 24.65 23.66 26.3 24 28 C20.18751574 28.02887236 16.3750593 28.04675492 12.5625 28.0625 C11.47388672 28.07087891 10.38527344 28.07925781 9.26367188 28.08789062 C8.22919922 28.09111328 7.19472656 28.09433594 6.12890625 28.09765625 C5.17056885 28.10289307 4.21223145 28.10812988 3.22485352 28.11352539 C1 28 1 28 0 27 C-0.08758003 25.00035018 -0.10696576 22.9976389 -0.09765625 20.99609375 C-0.09443359 19.78115234 -0.09121094 18.56621094 -0.08789062 17.31445312 C-0.07951172 16.03505859 -0.07113281 14.75566406 -0.0625 13.4375 C-0.05798828 12.15423828 -0.05347656 10.87097656 -0.04882812 9.54882812 C-0.03699555 6.3658658 -0.01905944 3.18292726 0 0 Z " fill="#BC292D" transform="translate(88,64)"/>
<path d="M0 0 C3.74030185 1.60298651 4.73158465 2.59737698 7 6 C7 6.99 7 7.98 7 9 C4.75 9.25 4.75 9.25 2 9 C1.38125 8.34 0.7625 7.68 0.125 7 C-1.97085341 4.60304835 -1.97085341 4.60304835 -5.75 4.75 C-7.35875 4.87375 -7.35875 4.87375 -9 5 C-9.33 6.32 -9.66 7.64 -10 9 C-9.19175781 9.17015625 -8.38351562 9.3403125 -7.55078125 9.515625 C3.75083818 12.0785978 3.75083818 12.0785978 7 16 C8.125 18.9375 8.125 18.9375 8 22 C5.20780175 25.61343303 2.46784589 27.93622717 -2 29 C-6.9661796 28.72911748 -10.79576753 27.67542066 -15 25 C-16.9375 22.5 -16.9375 22.5 -18 20 C-17.505 18.515 -17.505 18.515 -17 17 C-14.625 17.25 -14.625 17.25 -12 18 C-11.731875 18.66 -11.46375 19.32 -11.1875 20 C-10.21376335 22.1588722 -10.21376335 22.1588722 -8.2109375 22.51953125 C-4.67374895 23.00187514 -2.44268716 23.14756239 1 22 C1 20.68 1 19.36 1 18 C0.02417969 17.74605469 -0.95164062 17.49210937 -1.95703125 17.23046875 C-3.22933594 16.88628906 -4.50164063 16.54210937 -5.8125 16.1875 C-7.07707031 15.85105469 -8.34164063 15.51460937 -9.64453125 15.16796875 C-12.71753269 14.09832099 -14.097958 13.54725767 -16 11 C-16.875 9.125 -16.875 9.125 -17 7 C-13.27203603 -0.82872435 -7.86709611 -0.76021719 0 0 Z " fill="#BE282B" transform="translate(18,64)"/>
<path d="M0 0 C0.02888146 3.31248187 0.04675799 6.62493167 0.0625 9.9375 C0.07087891 10.88302734 0.07925781 11.82855469 0.08789062 12.80273438 C0.09272461 14.15141602 0.09272461 14.15141602 0.09765625 15.52734375 C0.10551147 16.77632446 0.10551147 16.77632446 0.11352539 18.05053711 C0 20 0 20 -1 21 C-2.34267413 21.08631874 -3.68974322 21.10706473 -5.03515625 21.09765625 C-6.12775757 21.09390991 -6.12775757 21.09390991 -7.24243164 21.09008789 C-8.1730542 21.08098389 -9.10367676 21.07187988 -10.0625 21.0625 C-14.4865625 21.0315625 -14.4865625 21.0315625 -19 21 C-19 14.4 -19 7.8 -19 1 C-14.5759375 0.7525 -14.5759375 0.7525 -10.0625 0.5 C-9.13187744 0.44779297 -8.20125488 0.39558594 -7.24243164 0.34179688 C-6.14983032 0.28088867 -6.14983032 0.28088867 -5.03515625 0.21875 C-4.2862915 0.17685547 -3.53742676 0.13496094 -2.76586914 0.09179688 C-1.84464901 0.0439082 -0.92246402 0 0 0 Z " fill="#BBD6EC" transform="translate(168,42)"/>
<path d="M0 0 C6.27 0 12.54 0 19 0 C19 6.6 19 13.2 19 20 C12.73 20 6.46 20 0 20 C0 13.4 0 6.8 0 0 Z " fill="#AACCE6" transform="translate(73,1)"/>
<path d="M0 0 C6.27 0 12.54 0 19 0 C19.020625 3.114375 19.04125 6.22875 19.0625 9.4375 C19.071604 10.42032959 19.08070801 11.40315918 19.09008789 12.41577148 C19.09258545 13.18477783 19.09508301 13.95378418 19.09765625 14.74609375 C19.10551147 15.93223267 19.10551147 15.93223267 19.11352539 17.14233398 C19 19 19 19 18 20 C16.65732587 20.08631874 15.31025678 20.10706473 13.96484375 20.09765625 C12.87224243 20.09390991 12.87224243 20.09390991 11.75756836 20.09008789 C10.8269458 20.08098389 9.89632324 20.07187988 8.9375 20.0625 C4.5134375 20.0315625 4.5134375 20.0315625 0 20 C0 13.4 0 6.8 0 0 Z " fill="#7BAFD9" transform="translate(0,43)"/>
<path d="M0 0 C1.65 0 3.3 0 5 0 C5.01981934 0.55985596 5.03963867 1.11971191 5.06005859 1.6965332 C5.15537783 4.23565854 5.26502753 6.77396888 5.375 9.3125 C5.4059375 10.19357422 5.436875 11.07464844 5.46875 11.98242188 C5.50742187 12.82998047 5.54609375 13.67753906 5.5859375 14.55078125 C5.6173584 15.33106689 5.6487793 16.11135254 5.68115234 16.9152832 C5.89587889 19.30155768 5.89587889 19.30155768 8 22 C10.20725073 22.36362818 10.20725073 22.36362818 12.625 22.1875 C13.44226562 22.16042969 14.25953125 22.13335937 15.1015625 22.10546875 C16.04128906 22.05326172 16.04128906 22.05326172 17 22 C18.61635488 19.13026116 19.2733418 16.95535797 19.4140625 13.671875 C19.45273437 12.87265625 19.49140625 12.0734375 19.53125 11.25 C19.5621875 10.425 19.593125 9.6 19.625 8.75 C19.66367187 7.90953125 19.70234375 7.0690625 19.7421875 6.203125 C19.83615836 4.13576618 19.91915564 2.06791373 20 0 C21.65 0 23.3 0 25 0 C25.08745946 3.3956697 25.14054444 6.79104773 25.1875 10.1875 C25.21263672 11.14720703 25.23777344 12.10691406 25.26367188 13.09570312 C25.35752915 22.13728707 25.35752915 22.13728707 22 26 C16.50268076 29.2337172 13.01381462 29.35795814 7 28 C3.17594463 26.25423559 1.54382518 24.87284963 0 21 C-0.22705078 18.61816406 -0.22705078 18.61816406 -0.1953125 16.015625 C-0.18886719 15.08105469 -0.18242187 14.14648438 -0.17578125 13.18359375 C-0.15902344 12.21550781 -0.14226563 11.24742188 -0.125 10.25 C-0.11597656 9.26644531 -0.10695313 8.28289062 -0.09765625 7.26953125 C-0.07412785 4.84610593 -0.04125368 2.42317778 0 0 Z " fill="#C22627" transform="translate(30,64)"/>
<path d="M0 0 C2.89640118 -0.08120751 5.79050912 -0.14059421 8.6875 -0.1875 C9.50412109 -0.21263672 10.32074219 -0.23777344 11.16210938 -0.26367188 C15.94015822 -0.32170486 19.13423093 -0.14903871 23 3 C24.54586876 6.09173752 24.29359521 8.59429552 24 12 C22.13291495 14.36497439 20.67938569 15.66030715 18 17 C15.7927077 17.07092842 13.58332548 17.08415025 11.375 17.0625 C10.18648437 17.05347656 8.99796875 17.04445313 7.7734375 17.03515625 C6.85820313 17.02355469 5.94296875 17.01195313 5 17 C5.33 20.3 5.66 23.6 6 27 C4.34385343 27.38218767 2.67542976 27.71395102 1 28 C0 27 0 27 -0.11352539 24.40795898 C-0.10828857 23.28204346 -0.10305176 22.15612793 -0.09765625 20.99609375 C-0.09443359 19.78115234 -0.09121094 18.56621094 -0.08789062 17.31445312 C-0.07951172 16.03505859 -0.07113281 14.75566406 -0.0625 13.4375 C-0.05798828 12.15423828 -0.05347656 10.87097656 -0.04882812 9.54882812 C-0.03699545 6.36583978 -0.02051068 3.18294238 0 0 Z M5 4 C5 6.97 5 9.94 5 13 C6.60407328 13.02708567 8.2082785 13.04643483 9.8125 13.0625 C11.15248047 13.07990234 11.15248047 13.07990234 12.51953125 13.09765625 C15.13413791 13.11009967 15.13413791 13.11009967 18 12 C19.00217064 8.41672247 19.00217064 8.41672247 18 5 C14.98509443 3.99503148 12.95818308 3.89664697 9.8125 3.9375 C8.91144531 3.94652344 8.01039062 3.95554687 7.08203125 3.96484375 C6.05142578 3.98224609 6.05142578 3.98224609 5 4 Z " fill="#C62423" transform="translate(60,64)"/>
<path d="M0 0 C6.27 0 12.54 0 19 0 C19 2.64 19 5.28 19 8 C18 9 18 9 16.23413086 9.11352539 C15.48526611 9.10828857 14.73640137 9.10305176 13.96484375 9.09765625 C13.15595703 9.09443359 12.34707031 9.09121094 11.51367188 9.08789062 C10.66353516 9.07951172 9.81339844 9.07113281 8.9375 9.0625 C8.08349609 9.05798828 7.22949219 9.05347656 6.34960938 9.04882812 C4.23304337 9.03700373 2.11651315 9.01906769 0 9 C0 6.03 0 3.06 0 0 Z " fill="#94BFE0" transform="translate(149,54)"/>
<path d="M0 0 C0 1.98 0 3.96 0 6 C-6.27 6 -12.54 6 -19 6 C-19 4.35 -19 2.7 -19 1 C-16.02085163 0.83300069 -13.04168271 0.66638454 -10.0625 0.5 C-8.78729492 0.42845703 -8.78729492 0.42845703 -7.48632812 0.35546875 C-6.67744141 0.31035156 -5.86855469 0.26523437 -5.03515625 0.21875 C-4.2862915 0.17685547 -3.53742676 0.13496094 -2.76586914 0.09179688 C-1.84464901 0.0439082 -0.92246402 0 0 0 Z " fill="#AECEE8" transform="translate(168,42)"/>
<path d="M0 0 C6.27 0 12.54 0 19 0 C19 1.65 19 3.3 19 5 C12.73 5 6.46 5 0 5 C0 3.35 0 1.7 0 0 Z " fill="#8EBBDE" transform="translate(73,1)"/>
<path d="M0 0 C5.94 0 11.88 0 18 0 C18 1.32 18 2.64 18 4 C12.06 4 6.12 4 0 4 C0 2.68 0 1.36 0 0 Z " fill="#BAD5EB" transform="translate(0,48)"/>
<path d="M0 0 C5.94 0 11.88 0 18 0 C18 1.32 18 2.64 18 4 C12.06 4 6.12 4 0 4 C0 2.68 0 1.36 0 0 Z " fill="#C0D9EC" transform="translate(0,43)"/>
<path d="M0 0 C0.99 0 1.98 0 3 0 C3 0.99 3 1.98 3 3 C4.65 3.33 6.3 3.66 8 4 C8.04254356 5.99954746 8.04080783 8.00041636 8 10 C7 11 7 11 3.4375 11.0625 C2.303125 11.041875 1.16875 11.02125 0 11 C0 7.37 0 3.74 0 0 Z " fill="#ACACAD" transform="translate(85,96)"/>
<path d="M0 0 C0.66 0 1.32 0 2 0 C2 3.63 2 7.26 2 11 C-0.33294775 11.04241723 -2.66702567 11.04092937 -5 11 C-6 10 -6 10 -6.125 7 C-6 4 -6 4 -5 3 C-3.33382885 2.95936168 -1.66611905 2.957279 0 3 C0 2.01 0 1.02 0 0 Z " fill="#E4E4E4" transform="translate(77,96)"/>
<path d="M0 0 C2.33294775 -0.04241723 4.66702567 -0.04092937 7 0 C8 1 8 1 8.125 3.5 C8 6 8 6 7 7 C5.33382885 7.04063832 3.66611905 7.042721 2 7 C2 8.32 2 9.64 2 11 C1.34 11 0.68 11 0 11 C0 7.37 0 3.74 0 0 Z " fill="#C0C0C1" transform="translate(16,96)"/>
<path d="M0 0 C2.5625 0.1875 2.5625 0.1875 4.5625 2.1875 C4.00694444 6.74305556 4.00694444 6.74305556 2.5625 8.1875 C0.0625 8.3125 0.0625 8.3125 -2.4375 8.1875 C-3.4375 7.1875 -3.4375 7.1875 -3.5625 4.1875 C-3.39891479 0.26145498 -3.39891479 0.26145498 0 0 Z " fill="#E0E1E1" transform="translate(29.4375,98.8125)"/>
<path d="M0 0 C1.23556641 0.01740234 1.23556641 0.01740234 2.49609375 0.03515625 C3.32238281 0.04417969 4.14867188 0.05320312 5 0.0625 C5.63808594 0.07410156 6.27617188 0.08570312 6.93359375 0.09765625 C6.93359375 2.07765625 6.93359375 4.05765625 6.93359375 6.09765625 C5.94359375 6.42765625 4.95359375 6.75765625 3.93359375 7.09765625 C3.93359375 6.43765625 3.93359375 5.77765625 3.93359375 5.09765625 C2.94359375 5.75765625 1.95359375 6.41765625 0.93359375 7.09765625 C-1.25390625 6.72265625 -1.25390625 6.72265625 -3.06640625 6.09765625 C-3.10912725 4.4315372 -3.10704457 2.7638274 -3.06640625 1.09765625 C-2.06640625 0.09765625 -2.06640625 0.09765625 0 0 Z " fill="#121212" transform="translate(113.06640625,97.90234375)"/>
<path d="M0 0 C0.66 0 1.32 0 2 0 C2 0.99 2 1.98 2 3 C2.66 3 3.32 3 4 3 C4 2.01 4 1.02 4 0 C4.99 0 5.98 0 7 0 C7 1.32 7 2.64 7 4 C7.66 4 8.32 4 9 4 C9 2.68 9 1.36 9 0 C9.66 0 10.32 0 11 0 C10.125 5.75 10.125 5.75 9 8 C6.66666667 8 4.33333333 8 2 8 C0.74335022 5.09399739 0 3.20395416 0 0 Z " fill="#DCDCDC" transform="translate(35,99)"/>
<path d="M0 0 C2.00720923 0.28674418 4.0085944 0.61866701 6 1 C6.04254356 2.99954746 6.04080783 5.00041636 6 7 C5 8 5 8 2.5625 8.1875 C0 8 0 8 -2 6 C-1.44444444 1.44444444 -1.44444444 1.44444444 0 0 Z " fill="#B2B2B3" transform="translate(49,99)"/>
<path d="M0 0 C5.94 0 11.88 0 18 0 C18 0.99 18 1.98 18 3 C12.06 3 6.12 3 0 3 C0 2.01 0 1.02 0 0 Z " fill="#C3DAED" transform="translate(0,53)"/>
<path d="M0 0 C0.99 0 1.98 0 3 0 C3 1.98 3 3.96 3 6 C3.66 6 4.32 6 5 6 C5 4.02 5 2.04 5 0 C5.99 0 6.98 0 8 0 C8 2.64 8 5.28 8 8 C5.66705225 8.04241723 3.33297433 8.04092937 1 8 C0 7 0 7 -0.0625 3.4375 C-0.041875 2.303125 -0.02125 1.16875 0 0 Z " fill="#BFBFBF" transform="translate(134,99)"/>
<path d="M0 0 C0.94875 0.04125 1.8975 0.0825 2.875 0.125 C3.205 1.115 3.535 2.105 3.875 3.125 C1.895 3.125 -0.085 3.125 -2.125 3.125 C-2.125 4.775 -2.125 6.425 -2.125 8.125 C-0.145 7.795 1.835 7.465 3.875 7.125 C3.545 8.445 3.215 9.765 2.875 11.125 C0 11.25 0 11.25 -3.125 11.125 C-5.125 9.125 -5.125 9.125 -5.375 5.625 C-5.05328869 1.12104166 -4.56738407 0.18269536 0 0 Z " fill="#DDDDDE" transform="translate(113.125,95.875)"/>
<path d="M0 0 C0.66 0 1.32 0 2 0 C2.66 0.99 3.32 1.98 4 3 C4.33 2.01 4.66 1.02 5 0 C5.99 0 6.98 0 8 0 C7.52269162 1.4589426 7.04308958 2.91713496 6.5625 4.375 C6.29566406 5.18710938 6.02882813 5.99921875 5.75390625 6.8359375 C5 9 5 9 4 11 C2.68 10.67 1.36 10.34 0 10 C0.66 10 1.32 10 2 10 C1.34 6.7 0.68 3.4 0 0 Z " fill="#D4D4D4" transform="translate(119,99)"/>
<path d="M0 0 C0.99 0 1.98 0 3 0 C3.33 0.99 3.66 1.98 4 3 C4.66 2.01 5.32 1.02 6 0 C6.66 0 7.32 0 8 0 C7.60446947 1.6510403 7.18286103 3.2958515 6.75 4.9375 C6.40195313 6.31228516 6.40195313 6.31228516 6.046875 7.71484375 C5 10 5 10 2.890625 10.81640625 C2.26671875 10.87699219 1.6428125 10.93757813 1 11 C1.20625 10.484375 1.4125 9.96875 1.625 9.4375 C2.15887026 5.96734329 1.07676761 3.29364209 0 0 Z " fill="#E4E4E4" transform="translate(94,99)"/>
<path d="M0 0 C1.98 0 3.96 0 6 0 C6 0.66 6 1.32 6 2 C4.68 1.67 3.36 1.34 2 1 C2 1.66 2 2.32 2 3 C3.65 3.33 5.3 3.66 7 4 C6.67 5.32 6.34 6.64 6 8 C4.02 8 2.04 8 0 8 C0 7.34 0 6.68 0 6 C1.32 6.33 2.64 6.66 4 7 C4 6.34 4 5.68 4 5 C2.68 4.67 1.36 4.34 0 4 C0 2.68 0 1.36 0 0 Z " fill="#DDDDDE" transform="translate(144,99)"/>
<path d="M0 0 C1.67542976 0.28604898 3.34385343 0.61781233 5 1 C5 1.99 5 2.98 5 4 C3.35 4 1.7 4 0 4 C0.33 4.66 0.66 5.32 1 6 C3.02463255 6.65213292 3.02463255 6.65213292 5 7 C2.625 7.625 2.625 7.625 0 8 C-0.66 7.34 -1.32 6.68 -2 6 C-1.44444444 1.44444444 -1.44444444 1.44444444 0 0 Z " fill="#D4D4D5" transform="translate(64,99)"/>
<path d="M0 0 C0.99 0 1.98 0 3 0 C3 2.64 3 5.28 3 8 C2.01 7.67 1.02 7.34 0 7 C0 4.69 0 2.38 0 0 Z " fill="#C5C5C6" transform="translate(139,99)"/>
<path d="M0 0 C1.65 0 3.3 0 5 0 C5 0.66 5 1.32 5 2 C4.01 2.495 4.01 2.495 3 3 C2.34444881 5.52733235 2.34444881 5.52733235 2 8 C1.34 8 0.68 8 0 8 C0 5.36 0 2.72 0 0 Z " fill="#E0E0E0" transform="translate(128,99)"/>
<path d="M0 0 C1.65 0 3.3 0 5 0 C4.67 0.66 4.34 1.32 4 2 C3.34 2 2.68 2 2 2 C2 3.98 2 5.96 2 8 C1.34 8 0.68 8 0 8 C0 5.36 0 2.72 0 0 Z " fill="#E1E1E1" transform="translate(57,99)"/>
<path d="M0 0 C0.33 0.99 0.66 1.98 1 3 C3.01508358 3.73323796 3.01508358 3.73323796 5 4 C5 4.66 5 5.32 5 6 C3.02 6.33 1.04 6.66 -1 7 C-1.04254356 5.00045254 -1.04080783 2.99958364 -1 1 C-0.67 0.67 -0.34 0.34 0 0 Z " fill="#353535" transform="translate(143,100)"/>
<path d="M0 0 C0.99 0.33 1.98 0.66 3 1 C2.67 2.65 2.34 4.3 2 6 C1.01 5.67 0.02 5.34 -1 5 C-0.67 3.35 -0.34 1.7 0 0 Z " fill="#3C3C3C" transform="translate(74,100)"/>
<path d="M0 0 C0.66 1.32 1.32 2.64 2 4 C-1.01031744 4.93423645 -1.86650268 5.04449911 -5 4 C-5 3.34 -5 2.68 -5 2 C-3.35 2 -1.7 2 0 2 C0 1.34 0 0.68 0 0 Z " fill="#636363" transform="translate(69,101)"/>
<path d="M0 0 C0.99 0.33 1.98 0.66 3 1 C3 2.32 3 3.64 3 5 C1.68 5 0.36 5 -1 5 C-0.67 3.35 -0.34 1.7 0 0 Z " fill="#242424" transform="translate(29,100)"/>
<path d="M0 0 C0.99 0 1.98 0 3 0 C3.66 1.98 4.32 3.96 5 6 C4.01 6.33 3.02 6.66 2 7 C1.34 4.69 0.68 2.38 0 0 Z " fill="#C5C5C5" transform="translate(94,99)"/>
</svg>
